<?xml version="1.0" encoding="UTF-8"?>
<svg version="1.1" xmlns="http://www.w3.org/2000/svg" width="512" height="512">
<path d="M0 0 C0.8103923 -0.00686325 1.62078461 -0.0137265 2.45573425 -0.02079773 C5.12700055 -0.03905643 7.797679 -0.03522959 10.46899414 -0.02954102 C12.33077688 -0.03410333 14.19255794 -0.03940905 16.05433655 -0.04542542 C19.95393724 -0.05435473 23.85333313 -0.0519355 27.75292969 -0.04199219 C32.74428763 -0.03050378 37.73493797 -0.05071288 42.72620296 -0.07990932 C46.57044447 -0.09827698 50.41451659 -0.09797772 54.25879097 -0.0922718 C56.09875036 -0.09211865 57.93872127 -0.09815788 59.77863884 -0.11056328 C62.35417629 -0.12548202 64.92840895 -0.11479036 67.50390625 -0.09765625 C68.25994141 -0.10732422 69.01597656 -0.11699219 69.79492188 -0.12695312 C74.94135727 -0.05544994 77.84457949 1.17373878 81.81665039 4.40405273 C85.08430199 8.42525082 85.14685516 11.62674925 85.00415039 16.71655273 C84.97708008 17.97081055 84.95000977 19.22506836 84.92211914 20.51733398 C84.86991211 21.94625977 84.86991211 21.94625977 84.81665039 23.40405273 C85.81180664 23.6115918 86.80696289 23.81913086 87.83227539 24.03295898 C126.30091388 32.36705162 161.58365052 51.3889705 190.34790039 78.12280273 C192.58620118 80.191106 194.87081377 82.17960964 197.19165039 84.15405273 C200.46349487 86.98830485 203.15496771 89.9937718 205.81665039 93.40405273 C208.74542576 92.95347191 209.97563303 92.27289206 212.31665039 90.34155273 C216.16914486 87.67519524 220.17052459 87.87702261 224.71899414 87.77514648 C230.09743197 88.86711179 233.39253767 91.34935535 236.45751953 95.77148438 C238.18536719 98.71277431 239.79431102 101.6958268 241.37915039 104.71655273 C242.60228261 106.97551886 243.82760158 109.23330211 245.05493164 111.48999023 C245.98619873 113.21427246 245.98619873 113.21427246 246.9362793 114.97338867 C249.87075124 120.32721882 252.96748567 125.58195147 256.06665039 130.84155273 C257.22091535 132.82296303 258.37457386 134.80472675 259.52758789 136.78686523 C261.62505357 140.38585585 263.75628727 143.96066691 265.91821289 147.52124023 C274.26779566 161.50031496 274.26779566 161.50031496 273.40649414 169.20483398 C272.05222115 174.25420942 269.72283185 177.0482465 265.31665039 179.65405273 C262.81665039 180.90405273 260.31665039 182.15405273 257.81665039 183.40405273 C257.98269775 184.04616699 258.14874512 184.68828125 258.31982422 185.34985352 C264.08078313 207.85416126 267.07658943 228.75761233 267.19165039 251.96655273 C267.20370514 253.3196756 267.20370514 253.3196756 267.21600342 254.70013428 C267.33578891 272.44814949 265.37100933 289.7254504 261.06665039 306.96655273 C260.80770996 308.01262695 260.54876953 309.05870117 260.28198242 310.13647461 C255.38652475 329.36716665 247.69175392 346.68447212 238.81665039 364.40405273 C240.16243164 364.80430664 240.16243164 364.80430664 241.53540039 365.21264648 C251.4200019 368.80169822 256.88905584 376.63883698 261.46899414 385.65795898 C263.90219119 392.36021121 263.1268319 399.8733991 263.00415039 406.90405273 C262.98907899 408.40924771 262.97539492 409.91445724 262.96313477 411.41967773 C262.93031726 415.08144214 262.87867028 418.74265295 262.81665039 422.40405273 C264.03094727 422.51620117 265.24524414 422.62834961 266.49633789 422.74389648 C273.80529757 423.6691831 279.7297094 427.57092576 284.25415039 433.34155273 C289.9208106 441.30870784 290.27296907 448.21810329 290.25024414 457.78295898 C290.25548599 459.06839096 290.26072784 460.35382294 290.26612854 461.6782074 C290.2750262 464.38892493 290.27267377 467.09934728 290.26269531 469.81005859 C290.25118735 473.27242775 290.27146017 476.73377972 290.30061245 480.19601536 C290.32342964 483.51671635 290.31650638 486.83718158 290.31274414 490.15795898 C290.32397812 491.39558487 290.3352121 492.63321075 290.3467865 493.90834045 C290.2584848 504.81011699 290.2584848 504.81011699 285.81665039 509.40405273 C281.54146832 512.67378122 277.69970716 512.82939001 272.50319004 512.78436947 C271.6651618 512.78902939 270.82713355 512.79368931 269.96371052 512.79849043 C267.14284996 512.81048439 264.32246714 512.80102806 261.50160217 512.79173279 C259.46390868 512.79590377 257.42621751 512.80137999 255.38853067 512.8080526 C249.77898762 512.82255673 244.16959087 512.81824699 238.56003964 512.81088579 C232.51427066 512.80616869 226.468534 512.818651 220.42277527 512.8289032 C209.26009319 512.84512904 198.09745664 512.84753058 186.93476901 512.84259821 C176.62250132 512.83804377 166.31025105 512.83863679 155.99798393 512.84443855 C154.61554084 512.84519541 153.23309774 512.84595139 151.85065464 512.8467065 C149.76752345 512.84785167 147.68439227 512.84900155 145.60126109 512.85016574 C126.23019303 512.86087325 106.85913079 512.8655934 87.48806095 512.85769558 C86.75760937 512.85739841 86.0271578 512.85710123 85.27457132 512.85679505 C79.34251484 512.85434603 73.41045844 512.85173449 67.47840204 512.84911092 C44.33697354 512.83900759 21.1956176 512.84736449 -1.94580078 512.87060547 C-27.93717405 512.89666634 -53.92850364 512.90952917 -79.91989046 512.90241772 C-82.6902161 512.90170164 -85.46054174 512.90102726 -88.23086739 512.90037727 C-88.91300668 512.90020746 -89.59514598 512.90003766 -90.29795617 512.8998627 C-100.6036572 512.89755788 -110.90931774 512.90554542 -121.21500969 512.91866875 C-132.93262619 512.93356329 -144.65016393 512.93407026 -156.36778419 512.91659784 C-162.34923794 512.90805782 -168.33051001 512.90601137 -174.3119545 512.92124939 C-179.78388902 512.93501715 -185.25548488 512.93043571 -190.72739942 512.91101015 C-192.71051889 512.90722543 -194.69366498 512.91024261 -196.6767609 512.9206218 C-199.36626884 512.93370101 -202.05459211 512.92228978 -204.74404812 512.90462399 C-205.51940345 512.9142745 -206.29475878 512.92392501 -207.09360972 512.93386796 C-212.26623577 512.86379584 -215.19661955 511.66666437 -219.18334961 508.40405273 C-221.97745313 504.79314204 -222.5675009 502.13037301 -222.61914062 497.61083984 C-222.63828018 496.46872543 -222.65741974 495.32661102 -222.67713928 494.14988708 C-222.68047775 492.92278519 -222.68381622 491.69568329 -222.68725586 490.43139648 C-222.69724106 489.15736465 -222.70722626 487.88333282 -222.71751404 486.57069397 C-222.7326999 483.87298176 -222.74103859 481.17617606 -222.73925781 478.47851562 C-222.7389547 475.05439898 -222.77973467 471.63217364 -222.83157444 468.20850277 C-222.87338374 464.90787613 -222.8712129 461.60725138 -222.87475586 458.30639648 C-222.89631241 457.0934642 -222.91786896 455.88053192 -222.94007874 454.63084412 C-222.86682885 445.39172797 -220.61988669 437.49686827 -214.43946838 430.40220642 C-209.10831549 425.3105382 -202.52196205 422.27509221 -195.18334961 422.40405273 C-195.20953369 421.49751953 -195.23571777 420.59098633 -195.26269531 419.65698242 C-195.34883517 416.23494015 -195.4110337 412.81407904 -195.45800781 409.39135742 C-195.48287545 407.92111833 -195.51678323 406.45099916 -195.56054688 404.98120117 C-195.90053598 393.25357687 -194.41129386 383.56925262 -186.99584961 374.02905273 C-183.05246368 369.87720588 -178.32494097 366.88555204 -173.18334961 364.40405273 C-172.52334961 364.40405273 -171.86334961 364.40405273 -171.18334961 364.40405273 C-171.49973389 363.78812256 -171.81611816 363.17219238 -172.14208984 362.53759766 C-189.51536787 328.39120368 -199.58845787 292.95887912 -199.49902344 254.55175781 C-199.49587267 251.73715061 -199.51939285 248.92360859 -199.54467773 246.10913086 C-199.60764755 228.53154346 -197.36726267 211.61307963 -192.99584961 194.59155273 C-192.72321289 193.49391602 -192.45057617 192.3962793 -192.16967773 191.26538086 C-191.51681014 188.64245667 -190.85492121 186.02223702 -190.18334961 183.40405273 C-190.87549561 183.07429443 -191.5676416 182.74453613 -192.28076172 182.40478516 C-193.18576416 181.96497314 -194.0907666 181.52516113 -195.02319336 181.07202148 C-195.92158936 180.63913818 -196.81998535 180.20625488 -197.74560547 179.76025391 C-201.42552251 177.71298909 -203.33432991 175.10209213 -205.18334961 171.40405273 C-206.63602002 161.93165462 -203.33511872 155.6815226 -198.55834961 147.71655273 C-197.87371526 146.53694139 -197.19121397 145.35608972 -196.51074219 144.17407227 C-194.76566618 141.15475906 -192.99399196 138.15200831 -191.21551514 135.15228271 C-189.59925571 132.4147439 -188.01118099 129.66106825 -186.42163086 126.90795898 C-184.10355547 122.89847703 -181.76782343 118.9003531 -179.41381836 114.91186523 C-177.33486159 111.38606278 -175.29518125 107.84320622 -173.29663086 104.27124023 C-172.8516626 103.48571777 -172.40669434 102.70019531 -171.94824219 101.89086914 C-171.13871442 100.45931281 -170.33934739 99.02193286 -169.55322266 97.57739258 C-167.06854991 93.22322509 -164.65317043 90.6926462 -160.18334961 88.40405273 C-155.43041768 87.49604861 -150.35080306 87.25271383 -145.99194336 89.56811523 C-144.36988372 90.82232118 -142.77468805 92.11109025 -141.18334961 93.40405273 C-138.63501633 93.22985026 -137.51493606 92.72700412 -135.68334961 90.94311523 C-135.18834961 90.31147461 -134.69334961 89.67983398 -134.18334961 89.02905273 C-117.40454503 69.04410715 -94.04659281 54.3934991 -71.18334961 42.40405273 C-70.51674316 42.05101074 -69.85013672 41.69796875 -69.16333008 41.33422852 C-53.08530435 32.93537987 -35.07713553 26.43227078 -17.18334961 23.40405273 C-17.22975586 22.46303711 -17.27616211 21.52202148 -17.32397461 20.55249023 C-17.65569554 9.10811804 -17.65569554 9.10811804 -15.49584961 5.71655273 C-10.66405619 0.88475931 -6.70181198 -0.03979793 0 0 Z M15.81665039 30.40405273 C16.44181721 37.90605452 17.11764984 45.26352641 18.19165039 52.69311523 C18.32104004 53.6036264 18.45042969 54.51413757 18.58374023 55.45223999 C18.8543211 57.34967196 19.12662866 59.24685847 19.40063477 61.14379883 C19.82062874 64.0566444 20.23301701 66.97050155 20.64477539 69.88452148 C20.90995077 71.73745047 21.17555963 73.59031748 21.44165039 75.44311523 C21.56459473 76.31384674 21.68753906 77.18457825 21.81420898 78.08169556 C22.36043766 82.37241786 22.36043766 82.37241786 23.81665039 86.40405273 C30.41665039 86.40405273 37.01665039 86.40405273 43.81665039 86.40405273 C45.3883699 79.51165085 45.3883699 79.51165085 46.59448242 72.60620117 C46.71445587 71.78214783 46.83442932 70.95809448 46.95803833 70.10906982 C47.07895844 69.25250793 47.19987854 68.39594604 47.32446289 67.51342773 C47.45480927 66.60578674 47.58515564 65.69814575 47.7194519 64.76300049 C47.99168901 62.86071887 48.26218576 60.95818743 48.53100586 59.05541992 C48.94258947 56.14741776 49.36168477 53.24056501 49.78149414 50.33374023 C50.04626627 48.47703341 50.31060444 46.62026463 50.57446289 44.76342773 C50.69943146 43.89876892 50.82440002 43.03411011 50.95315552 42.14324951 C51.06682465 41.33180481 51.18049377 40.52036011 51.29760742 39.68432617 C51.44844284 38.62251129 51.44844284 38.62251129 51.60232544 37.53924561 C51.83997607 35.17167273 51.81665039 32.78352309 51.81665039 30.40405273 C39.93665039 30.40405273 28.05665039 30.40405273 15.81665039 30.40405273 Z M79.81665039 54.40405273 C78.49665039 63.31405273 77.17665039 72.22405273 75.81665039 81.40405273 C79.34352539 82.51780273 82.87040039 83.63155273 86.50415039 84.77905273 C110.17212672 92.55680543 131.00242607 104.0397608 149.81665039 120.40405273 C150.59911133 121.0653418 151.38157227 121.72663086 152.18774414 122.40795898 C155.20363865 124.98302756 157.60210483 127.08223439 159.81665039 130.40405273 C164.65960248 128.85725435 168.06290418 126.06421017 171.94165039 122.90405273 C173.17270495 121.91357849 174.40445094 120.92396286 175.63696289 119.93530273 C176.44544678 119.27884766 176.44544678 119.27884766 177.27026367 118.60913086 C178.73280212 117.46939455 180.27387173 116.43257184 181.81665039 115.40405273 C172.81243415 92.24226379 134.65776324 74.53312761 113.74243164 64.92749023 C102.90132288 60.16078404 91.50390196 56.351928 79.81665039 54.40405273 Z M-112.56616211 111.55639648 C-114.40288869 113.2456407 -114.40288869 113.2456407 -114.18334961 115.40405273 C-112.19666029 117.09199178 -110.20979885 118.66447766 -108.12084961 120.21655273 C-107.5261084 120.66361572 -106.93136719 121.11067871 -106.31860352 121.57128906 C-105.14037131 122.45488276 -103.96007462 123.3357312 -102.77758789 124.21362305 C-101.46195513 125.1960159 -100.16219302 126.19962498 -98.86694336 127.20874023 C-96.9293463 128.73324361 -96.9293463 128.73324361 -94.18334961 130.40405273 C-89.99168775 129.00683212 -87.7621491 126.15624639 -84.83178711 122.90405273 C-64.82247304 101.56078439 -35.52543724 89.58926368 -8.18334961 81.40405273 C-9.50334961 72.49405273 -10.82334961 63.58405273 -12.18334961 54.40405273 C-48.45530525 54.40405273 -88.27446919 87.72700222 -112.56616211 111.55639648 Z M-57.18334961 139.40405273 C-58.61614258 140.64928711 -58.61614258 140.64928711 -60.07788086 141.91967773 C-62.47925344 144.04965055 -64.84933084 146.20070297 -67.18334961 148.40405273 C-67.70461426 148.82783203 -68.22587891 149.25161133 -68.76293945 149.68823242 C-70.6902101 152.01632767 -70.66017893 153.77576359 -70.93334961 156.76733398 C-72.04350177 164.33479539 -75.3421454 170.06732701 -79.18334961 176.59155273 C-79.86493977 177.77571697 -80.54510243 178.96070394 -81.22387695 180.14648438 C-82.56962933 182.49038957 -83.92577503 184.82773616 -85.29174805 187.15991211 C-86.96189488 190.02425272 -88.60014924 192.90305759 -90.22241211 195.79467773 C-91.0833645 197.31088623 -91.94525741 198.82656129 -92.80834961 200.34155273 C-93.18475586 201.01404053 -93.56116211 201.68652832 -93.94897461 202.37939453 C-96.81781251 207.30504989 -99.71240733 210.58040531 -105.18334961 212.40405273 C-106.05188431 214.97371747 -106.72132565 217.39448922 -107.30834961 220.02905273 C-107.4772168 220.72901367 -107.64608398 221.42897461 -107.82006836 222.15014648 C-112.7745585 243.1774708 -111.85002667 267.6130278 -106.18334961 288.40405273 C-105.98499512 289.1571875 -105.78664063 289.91032227 -105.58227539 290.6862793 C-99.02211325 314.8080529 -85.37955223 335.59094599 -68.18334961 353.40405273 C-67.4137793 354.22518555 -66.64420898 355.04631836 -65.85131836 355.89233398 C-61.75079621 360.39899805 -61.75079621 360.39899805 -56.18334961 362.40405273 C-58.49141021 358.30893845 -60.87133832 354.29638917 -63.37988281 350.31958008 C-83.83994976 317.49216135 -88.67453513 277.30827049 -80.05834961 239.90405273 C-72.55694701 209.29867121 -56.74900028 183.55507254 -29.99584961 166.27905273 C-1.80932138 149.53391999 30.76746053 145.24202334 62.50415039 153.21655273 C77.54443842 157.46672798 91.05214238 164.05511154 102.81665039 174.40405273 C103.9594043 175.4037207 103.9594043 175.4037207 105.12524414 176.42358398 C123.42492188 193.51808364 131.87722593 218.97719708 133.03930664 243.46264648 C133.83014418 269.58480725 126.83005449 296.48257209 108.6640625 315.84472656 C103.06227516 321.47787207 96.73505847 325.56674965 89.81665039 329.40405273 C88.91430664 329.90549805 88.01196289 330.40694336 87.08227539 330.92358398 C68.34178481 340.32222396 44.29995822 341.68782209 24.32446289 335.72436523 C8.62950296 329.81690816 -4.37573557 319.43913313 -11.93334961 304.27905273 C-19.37998876 286.70695045 -18.76707817 267.81414885 -11.99584961 250.15405273 C-5.82853198 236.45708464 3.75052876 226.4641125 17.56665039 220.59545898 C31.12406268 215.62549414 45.62915348 216.61159435 58.81665039 222.40405273 C63.44177969 224.73505889 66.80484809 226.46855644 68.81665039 231.40405273 C70.01336271 236.68953216 69.86888603 240.36674708 67.81665039 245.40405273 C64.75511496 249.01509452 62.60047734 251.07622755 57.79321289 251.64233398 C52.45932447 251.8106793 48.30726464 251.03846063 43.25415039 249.27905273 C37.4293299 247.35569838 33.47070922 246.88744224 27.81665039 249.40405273 C21.0941792 252.81972129 17.38337858 258.08768512 14.84399414 265.08374023 C12.06292393 274.42296207 11.99324685 282.30898673 15.81665039 291.40405273 C20.58427246 300.02244647 28.15290329 304.86366349 37.36572266 307.79980469 C41.45625402 308.80827815 45.43275997 308.89279766 49.62915039 308.84155273 C50.94181885 308.83019287 50.94181885 308.83019287 52.28100586 308.81860352 C63.59690063 308.53199276 72.56086 304.80570567 81.81665039 298.40405273 C82.45344727 297.96448242 83.09024414 297.52491211 83.74633789 297.07202148 C95.61734275 287.91815774 100.5458775 271.72893853 102.53540039 257.41967773 C104.48018942 236.56721761 99.484677 216.86664374 86.23461914 200.44311523 C73.38855029 186.62812148 54.52355956 180.2510475 36.08618164 179.18920898 C14.88777699 178.48329013 -6.21060464 184.57633839 -22.37084961 198.71655273 C-23.99542784 200.25781926 -25.59987922 201.82058235 -27.18334961 203.40405273 C-27.96709961 204.18780273 -28.75084961 204.97155273 -29.55834961 205.77905273 C-45.58813767 222.67531583 -53.30738885 247.37358448 -54.18334961 270.40405273 C-54.23491211 271.18651367 -54.28647461 271.96897461 -54.33959961 272.77514648 C-55.39032552 300.83828441 -45.03955516 328.74960596 -26.18334961 349.40405273 C-22.70468079 352.9506201 -19.01478155 356.24327663 -15.18334961 359.40405273 C-14.58433051 359.9312324 -13.98531141 360.45841208 -13.36814022 361.00156689 C-10.66252648 362.73838549 -9.01678081 362.79750517 -5.81654358 362.83210754 C-4.72757782 362.85068314 -3.63861206 362.86925873 -2.51664734 362.88839722 C-0.73143425 362.89578415 -0.73143425 362.89578415 1.08984375 362.90332031 C2.97597382 362.92807182 2.97597382 362.92807182 4.90020752 362.95332336 C8.34905895 362.99690981 11.7977519 363.02040941 15.24682689 363.03755021 C17.40650829 363.04858406 19.56614564 363.06287151 21.72580147 363.07806969 C28.49664507 363.12447019 35.26738288 363.15802535 42.03836721 363.17408544 C49.82813042 363.19277306 57.61600311 363.25400974 65.40515608 363.35258752 C71.44108817 363.42630734 77.47648861 363.4609856 83.51286417 363.46694869 C87.11061146 363.4713706 90.70648965 363.49169815 94.30375481 363.55304909 C112.14027173 364.56360699 112.14027173 364.56360699 127.85009766 357.61376953 C129.55633779 355.92700745 131.21746452 354.19263492 132.81665039 352.40405273 C134.55080155 350.90633655 136.2986536 349.42416084 138.06665039 347.96655273 C156.20928934 331.19924287 168.85711576 308.25951548 174.81665039 284.40405273 C174.98036133 283.7551709 175.14407227 283.10628906 175.31274414 282.43774414 C180.38664291 261.15148079 181.25314685 233.00265175 172.81665039 212.40405273 C171.90915039 211.97092773 171.00165039 211.53780273 170.06665039 211.09155273 C162.18832313 207.00088281 158.13383835 195.94394695 153.85766602 188.42138672 C152.82274942 186.60227324 151.78101321 184.78719494 150.73852539 182.97241211 C138.5015009 161.58608842 138.5015009 161.58608842 138.56665039 155.77905273 C138.22316906 150.3127927 134.87293687 147.61106661 130.98071289 144.06420898 C129.9299594 143.17283198 128.87508567 142.28629455 127.81665039 141.40405273 C127.26589844 140.93596191 126.71514648 140.46787109 126.14770508 139.9855957 C112.18947774 128.30427003 95.82281411 119.45214375 78.62915039 113.52905273 C77.52531006 113.14354248 77.52531006 113.14354248 76.39916992 112.75024414 C72.51069284 111.51094914 72.51069284 111.51094914 68.57836914 112.14624023 C67.70631836 112.76885742 67.70631836 112.76885742 66.81665039 113.40405273 C63.4812778 115.42730269 60.902621 115.66572271 57.02587891 115.69458008 C55.27870323 115.71371964 55.27870323 115.71371964 53.49623108 115.73324585 C51.61489723 115.73658432 51.61489723 115.73658432 49.69555664 115.73999023 C48.40350815 115.74664703 47.11145966 115.75330383 45.78025818 115.76016235 C43.04748187 115.7721226 40.31483187 115.77584442 37.58203125 115.7746582 C34.08701685 115.77445492 30.59281477 115.80177047 27.0979929 115.83620262 C23.75550199 115.86383704 20.4131603 115.8626211 17.07055664 115.86499023 C15.81835831 115.87936127 14.56615997 115.8937323 13.27601624 115.90853882 C11.52411232 115.89930893 11.52411232 115.89930893 9.73681641 115.88989258 C8.19937523 115.89416763 8.19937523 115.89416763 6.63087463 115.89852905 C3.11219636 115.28027588 1.47105064 113.7225555 -1.18334961 111.40405273 C-20.07425996 111.40405273 -43.5243077 127.47918305 -57.18334961 139.40405273 Z M-150.18334961 126.40405273 C-152.28682343 130.15556584 -154.38629805 133.90928036 -156.48217773 137.66503906 C-157.19496301 138.94103466 -157.90881647 140.21643419 -158.6237793 141.49121094 C-159.65430074 143.32906987 -160.68089649 145.16907453 -161.70678711 147.00952148 C-162.32473145 148.11448975 -162.94267578 149.21945801 -163.5793457 150.35791016 C-164.9721956 153.00305295 -166.14065187 155.60607123 -167.18334961 158.40405273 C-150.57189322 165.21787757 -133.92706506 171.92081227 -117.18334961 178.40405273 C-113.90846846 175.37660705 -111.60771763 172.22043119 -109.30834961 168.40405273 C-108.3531543 166.85717773 -108.3531543 166.85717773 -107.37866211 165.27905273 C-105.87468772 162.56754838 -105.87468772 162.56754838 -106.88989258 160.40942383 C-108.29335314 158.23350366 -109.62416305 157.00280136 -111.68334961 155.44311523 C-112.39716797 154.89574707 -113.11098633 154.34837891 -113.84643555 153.78442383 C-114.61761719 153.20515137 -115.38879883 152.62587891 -116.18334961 152.02905273 C-117.81378777 150.78456211 -119.44398904 149.53976109 -121.07397461 148.29467773 C-121.91508789 147.65594727 -122.75620117 147.0172168 -123.62280273 146.35913086 C-126.15192128 144.4280495 -128.66280966 142.47577613 -131.16772461 140.51342773 C-131.96694336 139.88742676 -132.76616211 139.26142578 -133.58959961 138.61645508 C-135.11624261 137.41963058 -136.64231361 136.22207599 -138.16772461 135.02368164 C-138.86897461 134.47631348 -139.57022461 133.92894531 -140.29272461 133.36499023 C-141.20489746 132.65028564 -141.20489746 132.65028564 -142.13549805 131.92114258 C-144.75351307 129.98166411 -147.46245294 128.1953338 -150.18334961 126.40405273 Z M209.75415039 132.15405273 C204.10299364 136.79541367 198.37977333 141.30037294 192.50415039 145.65405273 C186.11402029 150.38990895 179.91167261 155.2904324 173.81665039 160.40405273 C174.89000631 162.65930618 175.97472597 164.90780822 177.06665039 167.15405273 C177.36700195 167.78827148 177.66735352 168.42249023 177.97680664 169.07592773 C179.82948255 172.86011683 181.77981832 175.52182303 184.81665039 178.40405273 C191.29555323 175.87985416 197.7732972 173.35269937 204.25024414 170.82348633 C206.45375422 169.96342961 208.65752868 169.10404992 210.86157227 168.24536133 C214.02958818 167.01097675 217.19664529 165.77416041 220.36352539 164.53686523 C221.3490741 164.15345978 222.3346228 163.77005432 223.35003662 163.37503052 C224.27068909 163.01480804 225.19134155 162.65458557 226.13989258 162.28344727 C226.94819519 161.96812042 227.7564978 161.65279358 228.58929443 161.32791138 C230.72113321 160.44367118 232.76698649 159.46331558 234.81665039 158.40405273 C233.32065167 154.38968063 231.43006303 150.74668042 229.34008789 147.00952148 C229.00997711 146.41730301 228.67986633 145.82508453 228.3397522 145.21492004 C227.2931848 143.33888424 226.24249057 141.46519789 225.19165039 139.59155273 C224.47783404 138.31371135 223.76428953 137.03571806 223.05102539 135.75756836 C221.30937524 132.63796634 219.56401832 129.52045647 217.81665039 126.40405273 C215.23520716 126.40405273 211.79270805 130.46628353 209.75415039 132.15405273 Z M-160.18334961 194.40405273 C-162.67865482 200.50685632 -164.14621159 206.42397112 -165.30834961 212.90405273 C-165.4772168 213.8025293 -165.64608398 214.70100586 -165.82006836 215.62670898 C-167.33185114 223.80462058 -168.33845932 231.77804644 -168.42163086 240.09155273 C-168.43142471 240.90326935 -168.44121857 241.71498596 -168.4513092 242.55130005 C-168.62345694 260.52558032 -168.40746976 277.82926973 -164.18334961 295.40405273 C-163.96904297 296.33266113 -163.75473633 297.26126953 -163.53393555 298.21801758 C-158.9348163 317.78268426 -151.09762131 335.29288431 -141.69897461 352.98999023 C-141.1155127 354.08899658 -141.1155127 354.08899658 -140.52026367 355.21020508 C-138.86023221 357.93428155 -137.48704317 360.16367678 -135.18334961 362.40405273 C-132.43070773 362.8526014 -130.31072338 362.99305668 -127.57397461 362.89233398 C-126.84716492 362.88525925 -126.12035522 362.87818451 -125.371521 362.87089539 C-123.05773504 362.84298004 -120.74639963 362.78025656 -118.43334961 362.71655273 C-116.86177007 362.69146573 -115.29015245 362.66865325 -113.71850586 362.64819336 C-109.87251441 362.59316406 -106.02834695 362.50691939 -102.18334961 362.40405273 C-105.27615046 357.71387123 -108.4126835 353.07116418 -111.68725586 348.50561523 C-128.98548757 323.84815229 -140.19303514 291.70372279 -140.38647461 261.41577148 C-140.39335297 260.67880539 -140.40023132 259.94183929 -140.40731812 259.18254089 C-140.42438801 256.81882719 -140.43077162 254.45532479 -140.43334961 252.09155273 C-140.43502136 251.28647278 -140.43669312 250.48139282 -140.43841553 249.6519165 C-140.43991362 237.6321476 -139.77511619 226.17400187 -137.18334961 214.40405273 C-136.81284646 212.57399171 -136.44575079 210.74323805 -136.08178711 208.91186523 C-135.9108252 208.0547998 -135.73986328 207.19773438 -135.5637207 206.31469727 C-135.43819824 205.68418457 -135.31267578 205.05367187 -135.18334961 204.40405273 C-138.22342646 203.1086217 -141.26568513 201.81839296 -144.30834961 200.52905273 C-145.16428711 200.16424805 -146.02022461 199.79944336 -146.90209961 199.42358398 C-151.28379251 197.56979083 -155.63541862 195.8206214 -160.18334961 194.40405273 Z M224.38647461 195.20849609 C223.39147949 195.63267822 222.39648438 196.05686035 221.37133789 196.49389648 C220.2949707 196.94829102 219.21860352 197.40268555 218.10961914 197.87084961 C216.41772461 198.59884766 216.41772461 198.59884766 214.69165039 199.34155273 C213.55598633 199.82301758 212.42032227 200.30448242 211.25024414 200.80053711 C208.43602259 201.9948076 205.62508205 203.19624398 202.81665039 204.40405273 C202.99055298 205.29543945 202.99055298 205.29543945 203.16796875 206.20483398 C203.69944478 208.93738039 204.22682191 211.67070303 204.75415039 214.40405273 C205.02775391 215.8059082 205.02775391 215.8059082 205.30688477 217.23608398 C205.48413086 218.15776367 205.66137695 219.07944336 205.84399414 220.02905273 C206.00633545 220.86694336 206.16867676 221.70483398 206.3359375 222.56811523 C213.78120205 266.49101673 203.5838026 314.22351711 177.94165039 350.71655273 C176.56869421 352.61386672 175.19381041 354.50978789 173.81665039 356.40405273 C172.47878125 358.40102143 171.14486951 360.40065268 169.81665039 362.40405273 C174.40617069 362.62745674 178.99249858 362.79023203 183.58618164 362.8984375 C185.14631281 362.94355323 186.70606636 363.00486993 188.26489258 363.08300781 C197.1207684 363.81985988 197.1207684 363.81985988 205.01904297 360.70776367 C206.62709268 358.34565676 207.71838801 356.03943639 208.81665039 353.40405273 C209.71895932 351.79509861 210.63449607 350.19349518 211.56274414 348.59936523 C217.70293783 337.1809364 222.85728214 325.75155347 226.81665039 313.40405273 C227.05077637 312.68217773 227.28490234 311.96030273 227.52612305 311.21655273 C229.18476961 305.99589469 230.56714223 300.73650625 231.81665039 295.40405273 C232.01419922 294.58565918 232.21174805 293.76726562 232.4152832 292.92407227 C238.74443218 265.5719972 238.12151997 234.6783214 231.81665039 207.40405273 C231.52771841 206.04622859 231.23985467 204.68817641 230.95336914 203.32983398 C230.06919539 199.3112737 230.06919539 199.3112737 228.81665039 195.40405273 C226.78884686 194.0961369 226.78884686 194.0961369 224.38647461 195.20849609 Z M-163.18334961 395.40405273 C-166.89766839 402.08733431 -166.89766839 402.08733431 -165.18334961 422.40405273 C-33.84334961 422.40405273 97.49665039 422.40405273 232.81665039 422.40405273 C234.78888412 401.71928363 234.78888412 401.71928363 229.81665039 394.40405273 C226.50462674 391.99527523 223.34958815 392.15256633 219.34135532 392.14957714 C218.68990243 392.14637066 218.03844954 392.14316418 217.36725566 392.13986054 C215.1751326 392.13153136 212.98328069 392.13749489 210.79115295 392.14335632 C209.20733902 392.14033697 207.62352654 392.13644857 206.03971666 392.13176376 C201.68017778 392.1214472 197.3207208 392.12367485 192.96117508 392.12794435 C188.26239191 392.13040495 183.5636288 392.12140574 178.86485291 392.11390686 C169.65676586 392.10113938 160.44870794 392.09936871 151.24061353 392.10170712 C143.75838684 392.10348811 136.27616903 392.10174537 128.79394341 392.09748268 C127.19831369 392.0965899 127.19831369 392.0965899 125.57044904 392.09567908 C123.40963583 392.09446736 121.24882262 392.09325323 119.08800941 392.0920367 C98.81129826 392.08115333 78.53460374 392.08332746 58.25789165 392.08942155 C39.69610537 392.0945918 21.13437156 392.08333382 2.57259566 392.06432333 C-16.4739191 392.04496549 -35.52040902 392.03668529 -54.56693369 392.04044658 C-65.26521535 392.0423617 -75.96345234 392.03984085 -86.661726 392.02573204 C-95.76887285 392.01384344 -104.87594754 392.01238497 -113.98309534 392.02452221 C-118.63177617 392.03042857 -123.28032486 392.031462 -127.92899704 392.01951981 C-132.18207274 392.00872062 -136.43490501 392.01169273 -140.68796904 392.02578149 C-142.2289779 392.02844495 -143.77000547 392.02601055 -145.31099605 392.01804563 C-147.40169807 392.00798698 -149.49154613 392.0163198 -151.5822134 392.02932262 C-152.74464736 392.02926761 -153.90708133 392.02921259 -155.10474056 392.02915591 C-158.5893952 392.45349883 -160.425418 393.25176317 -163.18334961 395.40405273 Z M-192.18334961 452.40405273 C-192.18334961 462.30405273 -192.18334961 472.20405273 -192.18334961 482.40405273 C-43.02334961 482.40405273 106.13665039 482.40405273 259.81665039 482.40405273 C259.81665039 472.50405273 259.81665039 462.60405273 259.81665039 452.40405273 C110.65665039 452.40405273 -38.50334961 452.40405273 -192.18334961 452.40405273 Z " fill="#000000" transform="translate(222.183349609375,-0.404052734375)"/>
</svg>
